# xmcd
#
# Track frame offsets:
#	182
#	12727
#	33907
#	51182
#	65315
#	81507
#	97637
#	108550
#	120042
#	134432
#	149017
#	168115
#	183027
#	195490
#	210182
#	224985
#	242485
#
# Disc length: 3476 seconds
#
# Revision: 2
# Processed by: cddbd v1.5.2PL0 Copyright (c) Steve Scherf et al.
# Submitted via: EasyCDDAExtractor 2011.3.0.0
#
DISCID=e70d9211
DTITLE=Vyber - Duhova Vila (Dueta 70 a 80 let 1)
DYEAR=1970
DGENRE=Blues
TTITLE0=Hana Zagorová a Petr Rezek\n - Duhová víla\n
TTITLE1=Helena Vondráčková a Jiří Korn\n - Každá trampota má svou mez\n
TTITLE2=Marcela Březinová a Lešek Semelka\n - To nemá význam\n
TTITLE3=Hana Zagorová a Karel Gott\n - Dávné lásky\n
TTITLE4=Stanislav Hložek a Petr Kotvald\n - Bílá královna\n
TTITLE5=Marcela Holanová a Karel Gott\n - Čau,lásko\n
TTITLE6=Helena Vondráčková a Václav Neckář\n - Znala panna pána\n
TTITLE7=Hana Zagorová a Karel Vágner\n - Hej,mistře basů\n
TTITLE8=Karel Černoch a Petr Dvorský\n - Láska prý\n
TTITLE9=Iveta Bartošová a Petr Sepeši\n - Krásně se to věří\n
TTITLE10=Jitka Zelenková a Karel Zich\n - Nejde Zapomenout
TTITLE11=Petra Janú a Jiří Bareš\n - Jsme stálí\n
TTITLE12=Petra Janú a Petr Janda\n - Jedeme dál\n
TTITLE13=Iveta Bartošová a Petr Sepeši\n - Věčné půjčování\n
TTITLE14=Petra Zámečníková a Jiří Strnad\n - Jsme dva velký blázni\n
TTITLE15=Hana Zagorová a Petr Hapka\n - Levandulová\n
TTITLE16=Petra Janú a Hana Zagorová\n - Já o něm vím své\n
EXTD=
EXTT0=
EXTT1=
EXTT2=
EXTT3=
EXTT4=
EXTT5=
EXTT6=
EXTT7=
EXTT8=
EXTT9=
EXTT10=
EXTT11=
EXTT12=
EXTT13=
EXTT14=
EXTT15=
EXTT16=
PLAYORDER=
